<svg height="512pt" viewBox="0 0 512 512" width="512pt" xmlns="http://www.w3.org/2000/svg"><path d="m358.199219 329.144531c0 96.835938-78.503907 175.339844-175.34375 175.339844-96.835938 0-175.339844-78.503906-175.339844-175.339844 0-96.839843 78.503906-175.34375 175.339844-175.34375 96.839843 0 175.34375 78.503907 175.34375 175.34375zm0 0" fill="#ecce93"/><path d="m348.644531 386.320312c6.179688-17.921874 9.554688-37.15625 9.554688-57.175781 0-96.839843-78.503907-175.34375-175.34375-175.34375-20.40625 0-39.996094 3.5-58.214844 9.910157-.585937 6.304687-.898437 12.691406-.898437 19.144531 0 113.261719 92.140624 205.402343 205.402343 205.402343 1.574219 0 3.148438-.019531 4.714844-.054687-30.515625 51.601563-86.707031 86.222656-151.003906 86.222656-91.773438 0-167.066407-70.511719-174.691407-160.3125-.421874 4.953125-.648437 9.964844-.648437 15.03125 0 96.835938 78.503906 175.339844 175.339844 175.339844 76.429687 0 141.425781-48.90625 165.429687-117.125h.003906c.027344-.082031.054688-.164063.082032-.242187.09375-.265626.191406-.53125.285156-.796876-.003906 0-.007812 0-.011719 0zm0 0" fill="#eab962"/><path d="m494.464844 161.816406c-18.058594 0-33.882813-9.5625-42.699219-23.894531-4.945313 1.199219-10.101563 1.851563-15.414063 1.851563-35.96875 0-65.125-29.160157-65.125-65.128907 0-3.804687.34375-7.53125.96875-11.160156-13.199218-5.359375-22.511718-18.300781-22.511718-33.425781 0-7.609375 2.363281-14.667969 6.386718-20.488282-8.777343-1.351562-17.769531-2.054687-26.925781-2.054687-96.839843 0-175.34375 78.503906-175.34375 175.339844 0 96.839843 78.503907 175.34375 175.34375 175.34375 96.835938 0 175.339844-78.503907 175.339844-175.34375 0-7.382813-.460937-14.65625-1.347656-21.804688-2.816407.492188-5.710938.765625-8.671875.765625zm0 0" fill="#ecce93"/><path d="m356.070312 9.570312c-1.75-.269531-3.507812-.503906-5.273437-.722656.542969 2.148438 1.277344 4.214844 2.183594 6.1875.882812-1.914062 1.902343-3.746094 3.089843-5.464844zm0 0" fill="#eab962"/><path d="m329.144531 328.140625c-91.777343 0-167.070312-70.511719-174.695312-160.3125-.421875 4.953125-.648438 9.964844-.648438 15.027344 0 96.839843 78.503907 175.34375 175.34375 175.34375 96.835938 0 175.339844-78.503907 175.339844-175.34375 0-5.046875-.230469-10.039063-.652344-14.980469-7.644531 89.777344-82.929687 160.265625-174.6875 160.265625zm0 0" fill="#eab962"/><g fill="#c19371"><path d="m229.949219 138.769531-11.023438-29.054687 24.046875-13.027344 31.0625 11.023438-9.015625 35.066406zm0 0"/><path d="m394.269531 230.949219-21.039062 19.039062 8.015625 26.050781 33.0625 1.003907 12.023437-24.050781zm0 0"/><path d="m85.667969 254.996094-10.019531 29.058594 24.046874 22.042968 31.058594-22.042968-17.03125-25.046876zm0 0"/><path d="m213.917969 386.253906-22.042969 28.054688 19.035156 25.050781 34.066406-10.019531-5.007812-36.070313zm0 0"/><path d="m333.152344 145.785156-22.042969 27.050782 24.046875 23.046874 35.066406-14.027343-14.027344-29.058594zm0 0"/><path d="m267.023438 277.042969-24.050782-22.046875 23.046875-29.054688 28.054688 19.035156-2.003907 25.050782zm0 0"/><path d="m115.726562 360.203125-33.066406 17.035156 16.03125 39.074219 42.082032-5.007812 9.019531-31.0625zm0 0"/></g><path d="m182.855469 496.96875c-76.324219 0-143.097657-51.5-162.378907-125.246094l-14.539062 3.804688c21.007812 80.351562 93.761719 136.472656 176.917969 136.472656 6.921875 0 13.898437-.390625 20.738281-1.164062l-1.6875-14.933594c-6.277344.710937-12.6875 1.066406-19.050781 1.066406zm0 0"/><path d="m216.109375 493.679688 2.960937 14.730468c64.636719-12.988281 117.429688-60.078125 137.769532-122.886718l-14.296875-4.628907c-18.671875 57.644531-67.117188 100.863281-126.433594 112.785157zm0 0"/><path d="m15.03125 329.144531c0-73.03125 46.644531-137.203125 116.074219-159.6875l-4.632813-14.296875c-36.472656 11.8125-67.855468 34.429688-90.757812 65.40625-23.363282 31.609375-35.714844 69.15625-35.714844 108.578125 0 10.421875.882812 20.875 2.628906 31.066407l14.816406-2.535157c-1.601562-9.359375-2.414062-18.957031-2.414062-28.53125zm0 0"/><path d="m329.144531 350.683594c-92.542969 0-167.828125-75.285156-167.828125-167.828125 0-32.761719 9.441406-64.503907 27.304688-91.792969l-12.578125-8.230469c-19.464844 29.742188-29.757813 64.328125-29.757813 100.023438 0 100.828125 82.03125 182.859375 182.859375 182.859375 47.355469 0 92.261719-18.03125 126.453125-50.773438l-10.398437-10.855468c-31.375 30.050781-72.59375 46.597656-116.054688 46.597656zm0 0"/><path d="m510.59375 160.125-.972656-7.832031-7.777344 1.355469c-2.472656.433593-4.957031.652343-7.378906.652343-14.90625 0-28.476563-7.59375-36.300782-20.316406l-2.859374-4.65625-5.3125 1.289063c-4.480469 1.089843-9.070313 1.640624-13.640626 1.640624-31.765624 0-57.613281-25.84375-57.613281-57.613281 0-3.242187.292969-6.566406.863281-9.878906l1.03125-5.964844-5.609374-2.277343c-10.828126-4.398438-17.824219-14.785157-17.824219-26.464844 0-5.824219 1.746093-11.429688 5.050781-16.210938l6.828125-9.875-11.863281-1.828125c-9.234375-1.421875-18.679688-2.144531-28.070313-2.144531-56.554687 0-109.03125 25.554688-143.972656 70.105469l11.828125 9.277343c32.074219-40.898437 80.234375-64.351562 132.144531-64.351562 5.144531 0 10.308594.234375 15.433594.703125-1.589844 4.566406-2.410156 9.394531-2.410156 14.324219 0 15.828125 8.414062 30.097656 21.867187 37.796875-.214844 2.277343-.324218 4.546875-.324218 6.789062 0 40.054688 32.585937 72.644531 72.640624 72.644531 4.015626 0 8.039063-.339843 12.015626-1.003906 11.242187 15.035156 28.890624 23.675782 48.058593 23.011719.363281 4.515625.542969 9.054687.542969 13.558594 0 40.855469-14.847656 80.222656-41.8125 110.851562l11.28125 9.933594c29.382812-33.375 45.5625-76.269531 45.5625-120.785156 0-7.5625-.472656-15.210938-1.40625-22.730469zm0 0"/><path d="m415.3125 72.140625h15.027344v15.03125h-15.027344zm0 0"/><path d="m455.390625 62.121094h15.027344v15.03125h-15.027344zm0 0"/><path d="m455.390625 22.042969h15.027344v15.03125h-15.027344zm0 0"/><path d="m209.570312 106.234375 14.976563 39.480469 46.117187 5.273437 12.359376-48.0625-40.6875-14.4375zm55.476563 6.257813-5.675781 22.078124-24.019532-2.746093-7.066406-18.632813 15.328125-8.300781zm0 0"/><path d="m418.882812 284.699219 17.097657-34.191407-42.347657-29.113281-28.992187 26.230469 11 35.761719zm-23.976562-44.191407 21.78125 14.972657-6.953125 13.902343-22.890625-.691406-5.027344-16.339844zm0 0"/><path d="m80.585938 246.679688-13.648438 39.585937 32.15625 29.472656 42.019531-29.820312-23.042969-33.882813zm19.710937 49.777343-15.9375-14.613281 6.390625-18.527344 18.625 2.660156 11.023438 16.214844zm0 0"/><path d="m246.726562 387.304688-35.648437-9.597657-28.699219 36.527344 25.683594 33.792969 45.25-13.308594zm-32.964843 43.382812-12.390625-16.300781 15.386718-19.585938 16.453126 4.429688 3.433593 24.726562zm0 0"/><path d="m330.511719 137.125-29.609375 36.339844 32.546875 31.191406 47.042969-18.8125-18.960938-39.277344zm6.347656 49.984375-15.546875-14.898437 14.476562-17.765626 15.070313 4.585938 9.09375 18.839844zm0 0"/><path d="m232.738281 255.8125 32.285157 29.59375 34.121093-9.554688 2.769531-34.632812-37.445312-25.410156zm53.496094-7.074219-1.234375 15.464844-15.980469 4.476563-15.808593-14.492188 14.363281-18.109375zm0 0"/><path d="m93.910156 424.449219 52.695313-6.273438 12.03125-41.449219-42.671875-25.101562-42.871094 22.085938zm47.039063-40.691407-6.003907 20.671876-31.46875 3.746093-11.246093-27.414062 23.253906-11.980469zm0 0"/><path d="m182.855469 481.941406c-5.261719 0-10.570313-.273437-15.773438-.808594l1.542969-14.949218c4.691406.480468 9.480469.726562 14.230469.726562zm-31.386719-3.242187c-9.21875-1.933594-18.300781-4.742188-27-8.355469l5.757812-13.878906c7.839844 3.253906 16.023438 5.78125 24.324219 7.523437zm0 0" fill="#fff"/><path d="m36.382812 372.699219c-1.5-5.027344-2.75-10.199219-3.714843-15.359375l14.773437-2.769532c.871094 4.652344 1.996094 9.308594 3.347656 13.839844zm-5.8125-31.019531c-.339843-4.140626-.511718-8.355469-.511718-12.535157 0-7.039062.484375-14.128906 1.4375-21.0625l14.890625 2.046875c-.863281 6.261719-1.296875 12.65625-1.296875 19.015625 0 3.769531.152344 7.574219.457031 11.308594zm0 0" fill="#fff"/><path d="m186.503906 237.660156c-1.886718-4.902344-3.539062-9.953125-4.90625-15.023437l14.507813-3.914063c1.234375 4.566406 2.722656 9.121094 4.421875 13.535156zm-8.222656-30.472656c-.832031-5.175781-1.402344-10.460938-1.695312-15.707031l15.003906-.839844c.265625 4.734375.78125 9.496094 1.53125 14.160156zm13.242188-30.800781-15.011719-.699219c.511719-11.050781 2.230469-22.046875 5.101562-32.671875l14.507813 3.921875c-2.585938 9.574219-4.136719 19.484375-4.597656 29.449219zm0 0" fill="#fff"/><path d="m322.941406 335.53125c-8.332031-.335938-16.679687-1.355469-24.800781-3.035156l3.046875-14.71875c7.320312 1.515625 14.839844 2.4375 22.355469 2.738281zm15.789063-.171875-.933594-15c4.734375-.296875 9.496094-.839844 14.152344-1.621094l2.480469 14.824219c-5.167969.863281-10.449219 1.46875-15.699219 1.796875zm0 0" fill="#fff"/></svg>